<?xml version="1.0" encoding="utf-8"?>
<!-- Generator: Adobe Illustrator 27.5.0, SVG Export Plug-In . SVG Version: 6.00 Build 0)  -->
<svg version="1.1" id="Layer_1" xmlns="http://www.w3.org/2000/svg" xmlns:xlink="http://www.w3.org/1999/xlink" x="0px" y="0px"
	 viewBox="0 0 937.6 1042.4" style="enable-background:new 0 0 937.6 1042.4;" xml:space="preserve">
<style type="text/css">
	.st0{fill:#231F20;}
	.st1{fill:#43ABE1;}
	.st2{fill:#FFFFFF;}
</style>
<g>
	<polygon class="st0" points="463,63.8 485.4,185.9 507.9,307.9 465.3,308.3 422.8,308.7 442.9,186.3 	"/>
	<g>
		<path class="st1" d="M312.6,204.2h305.6c158.6,0,287.2,128.6,287.2,287.2v28.8c0,158.6-128.6,287.2-287.2,287.2H312.6
			c-158.6,0-287.2-128.6-287.2-287.2v-28.8C25.3,332.8,153.9,204.2,312.6,204.2z"/>
		<path class="st0" d="M618.1,815.3H312.6c-162.7,0-295.1-132.4-295.1-295.1v-28.8c0-162.7,132.4-295.1,295.1-295.1h305.6
			c162.7,0,295.1,132.4,295.1,295.1v28.8C913.2,682.9,780.9,815.3,618.1,815.3L618.1,815.3z M312.6,212.1
			c-154,0-279.3,125.3-279.3,279.3v28.8c0,154,125.3,279.3,279.3,279.3h305.6c154,0,279.3-125.3,279.3-279.3v-28.8
			c0-154-125.3-279.3-279.3-279.3L312.6,212.1L312.6,212.1z"/>
	</g>
	<g>
		<path class="st2" d="M298.1,324.9h334.4c88.5,0,160.2,71.7,160.2,160.2v24.6c0,88.5-71.7,160.2-160.2,160.2H298.1
			c-88.5,0-160.2-71.7-160.2-160.2v-24.6C137.9,396.7,209.6,324.9,298.1,324.9z"/>
		<path class="st0" d="M632.6,677.8H298.1c-92.7,0-168.1-75.4-168.1-168.1v-24.6c0-92.7,75.4-168.1,168.1-168.1h334.4
			c92.7,0,168.1,75.4,168.1,168.1v24.6C800.7,602.4,725.2,677.8,632.6,677.8L632.6,677.8z M298.1,332.8
			c-84,0-152.3,68.3-152.3,152.3v24.6c0,84,68.3,152.3,152.3,152.3h334.4c84,0,152.3-68.3,152.3-152.3v-24.6
			c0-84-68.3-152.3-152.3-152.3H298.1L298.1,332.8z"/>
	</g>
	<g>
		<path class="st0" d="M682.8,497.4c-1,38-32.4,69.4-71.9,68.8c-40.2-0.6-71-33.7-70.1-72.7c0.9-38.9,34.2-71.8,76.3-68.9
			C652.9,427,684.1,458.1,682.8,497.4z"/>
		<path class="st0" d="M389.9,495.3c0,39.4-31.8,71.1-71.6,70.9c-40.1-0.2-69.7-33.2-70.4-69.2c-0.8-40.5,32.3-71.2,67.9-72.5
			C357.4,423,390.1,456.3,389.9,495.3L389.9,495.3z"/>
	</g>
	<g>
		<polygon class="st0" points="496.4,927.6 374.6,974.8 252.9,1022 252,930 251.1,837.9 373.8,882.8 		"/>
		<polygon class="st0" points="434.3,927.6 556,974.8 677.8,1022 678.7,930 679.6,837.9 556.9,882.8 		"/>
	</g>
	<path class="st0" d="M536.3,88c-1,38-32.4,69.4-71.9,68.8c-40.2-0.6-71-33.7-70.1-72.7c0.9-38.9,34.2-71.8,76.3-68.9
		C506.5,17.7,537.6,48.7,536.3,88L536.3,88z"/>
</g>
</svg>
