<?xml version="1.0" encoding="utf-8"?>
<!-- Generator: Adobe Illustrator 27.5.0, SVG Export Plug-In . SVG Version: 6.00 Build 0)  -->
<svg version="1.1" id="Layer_1" xmlns="http://www.w3.org/2000/svg" xmlns:xlink="http://www.w3.org/1999/xlink" x="0px" y="0px"
	 viewBox="0 0 1591.3 336.9" style="enable-background:new 0 0 1591.3 336.9;" xml:space="preserve">
<style type="text/css">
	.st0{fill:#43ABE1;}
	.st1{fill:#231F20;}
	.st2{fill:#FFFFFF;}
</style>
<g>
	<g>
		<path class="st0" d="M1275.4,176.4v73.2h-28.2V56.2h40.1c33.3,0,40.4,4.9,40.4,39.4V137c0,34.8-7.6,39.4-40.4,39.4L1275.4,176.4
			L1275.4,176.4z M1275.4,80.7v72.9h12c10,0,12-2.4,12-15.7V95.6c0-12.5-1-14.9-12-14.9H1275.4z"/>
		<path class="st0" d="M1367.4,249.6h-25V103h23.2v9.8c3.4-6.6,10.5-11,23.5-11c16.4,0,22,7.1,22,29.9v36.5h-22.5v-33.5
			c0-7.1-1.7-10.3-9.1-10.3c-6.8,0-10.3,2.7-12.2,8.1L1367.4,249.6L1367.4,249.6z"/>
		<path class="st0" d="M1447.4,184.9v34.5c0,9.3,1.5,11.3,10.5,11.3s10.5-2,10.5-11.3v-19.8h22.5v21.3c0,27.7-6.1,31.1-33.3,31.1
			c-28.9,0-34.8-3.9-34.8-31.1v-89.3c0-27.2,5.9-31.1,34.8-31.1c27.2,0,33.3,3.4,33.3,31.1v53.3H1447.4L1447.4,184.9z M1447.4,164.9
			h21.1v-31.3c0-9.3-1.7-11-10.5-11s-10.5,1.7-10.5,11L1447.4,164.9L1447.4,164.9z"/>
		<path class="st0" d="M1580.3,220.9c0,22.8-4.4,29.9-22.8,29.9c-10.8,0-17.9-2.5-22.3-10V287h-25V103h23.2v10.8
			c4.7-9.5,12.2-12,23.2-12c19.1,0,23.5,7.3,23.5,29.9L1580.3,220.9L1580.3,220.9z M1534.6,220.9c2.4,5.4,5.6,7.6,12,7.6
			c7.3,0,9.5-2.9,9.5-12.2v-79.8c0-9.3-2.2-12.2-9.5-12.2c-6.4,0-9.6,2.2-12,7.6V220.9L1534.6,220.9z"/>
	</g>
	<g>
		<path class="st1" d="M373.1,252.5H345V59.1h28.1V252.5z"/>
		<path class="st1" d="M419.6,252.5h-25V105.9h23.2v9.8c3.9-7.3,10.5-11,24-11c18.8,0,25,7.3,25,29.9v118h-25V137.2
			c0-7.3-2.5-10-9.8-10c-8.1,0-10.5,3.2-12.5,7.6L419.6,252.5L419.6,252.5z"/>
		<path class="st1" d="M529.8,126.2h-17.1v92c0,10,2.5,13,12.2,13h4.7v21.3h-6.4c-26.9,0-35.5-9.5-35.5-31.1v-95.2h-9.1v-20.3h9.1
			V61.3h25v44.6h17.1L529.8,126.2L529.8,126.2z"/>
		<path class="st1" d="M568.4,187.8v34.5c0,9.3,1.5,11.3,10.5,11.3s10.5-2,10.5-11.3v-19.8H612v21.3c0,27.7-6.1,31.1-33.3,31.1
			c-28.9,0-34.8-3.9-34.8-31.1v-89.3c0-27.2,5.9-31.1,34.8-31.1c27.2,0,33.3,3.4,33.3,31.1v53.3H568.4L568.4,187.8z M568.4,167.8h21
			v-31.3c0-9.3-1.7-11-10.5-11s-10.5,1.7-10.5,11L568.4,167.8L568.4,167.8z"/>
		<path class="st1" d="M656.3,252.5h-25V105.9h23.2v9.8c3.4-6.6,10.5-11,23.5-11c16.4,0,22,7.1,22,29.9V171h-22.5v-33.5
			c0-7.1-1.7-10.3-9.1-10.3c-6.8,0-10.3,2.7-12.2,8.1V252.5L656.3,252.5z"/>
		<path class="st1" d="M723.1,252.5l-17.6-146.6h26.2l11.3,111.4h1l12.2-111.4h25.9l-19.8,146.6L723.1,252.5L723.1,252.5z"/>
		<path class="st1" d="M819.3,84.6h-24.7V59.1h24.7V84.6z M819.3,252.5h-24.7V105.9h24.7V252.5z"/>
		<path class="st1" d="M863.6,187.8v34.5c0,9.3,1.5,11.3,10.5,11.3s10.5-2,10.5-11.3v-19.8h22.5v21.3c0,27.7-6.1,31.1-33.3,31.1
			c-28.9,0-34.8-3.9-34.8-31.1v-89.3c0-27.2,5.9-31.1,34.8-31.1c27.2,0,33.3,3.4,33.3,31.1v53.3H863.6L863.6,187.8z M863.6,167.8h21
			v-31.3c0-9.3-1.7-11-10.5-11s-10.5,1.7-10.5,11L863.6,167.8L863.6,167.8z"/>
		<path class="st1" d="M943.6,105.9l7.6,109.7h1l12.5-109.6h32.6l11.3,109.6h1l9.1-109.6h26.7l-20.3,146.6h-33.8l-9.8-111.4h-1
			l-12.5,111.4h-34l-16.9-146.6L943.6,105.9L943.6,105.9z"/>
		<path class="st1" d="M1077.7,187.8v34.5c0,9.3,1.5,11.3,10.5,11.3s10.5-2,10.5-11.3v-19.8h22.5v21.3c0,27.7-6.1,31.1-33.3,31.1
			c-28.9,0-34.8-3.9-34.8-31.1v-89.3c0-27.2,5.9-31.1,34.8-31.1c27.2,0,33.3,3.4,33.3,31.1v53.3H1077.7L1077.7,187.8z M1077.7,167.8
			h21.1v-31.3c0-9.3-1.7-11-10.5-11s-10.5,1.7-10.5,11V167.8z"/>
		<path class="st1" d="M1163.1,187.8v34.5c0,9.3,1.5,11.3,10.5,11.3s10.5-2,10.5-11.3v-19.8h22.5v21.3c0,27.7-6.1,31.1-33.3,31.1
			c-28.9,0-34.8-3.9-34.8-31.1v-89.3c0-27.2,5.9-31.1,34.8-31.1c27.2,0,33.3,3.4,33.3,31.1v53.3H1163.1L1163.1,187.8z M1163.1,167.8
			h21.1v-31.3c0-9.3-1.7-11-10.5-11s-10.5,1.7-10.5,11V167.8z"/>
	</g>
</g>
<g>
	<polygon class="st1" points="148.5,27.5 155.6,66.2 162.8,104.9 149.3,105 135.8,105.1 142.2,66.3 	"/>
	<g>
		<path class="st0" d="M100.9,72h96.8c50.3,0,91,40.7,91,91v9.1c0,50.3-40.7,91-91,91h-96.8c-50.3,0-91-40.7-91-91V163
			C9.8,112.8,50.6,72,100.9,72z"/>
		<path class="st1" d="M197.7,265.6h-96.8c-51.6,0-93.5-42-93.5-93.5V163c0-51.6,42-93.5,93.5-93.5h96.8c51.6,0,93.5,41.9,93.5,93.5
			v9.1C291.2,223.7,249.2,265.6,197.7,265.6z M100.9,74.5c-48.8,0-88.5,39.7-88.5,88.5v9.1c0,48.8,39.7,88.5,88.5,88.5h96.8
			c48.8,0,88.5-39.7,88.5-88.5V163c0-48.8-39.7-88.5-88.5-88.5L100.9,74.5L100.9,74.5z"/>
	</g>
	<g>
		<path class="st2" d="M96.3,110.3h106c28,0,50.8,22.7,50.8,50.8v7.8c0,28-22.7,50.8-50.8,50.8h-106c-28,0-50.8-22.7-50.8-50.8V161
			C45.5,133,68.2,110.3,96.3,110.3z"/>
		<path class="st1" d="M202.3,222.1h-106c-29.4,0-53.3-23.9-53.3-53.3V161c0-29.4,23.9-53.3,53.3-53.3h106
			c29.4,0,53.3,23.9,53.3,53.3v7.8C255.5,198.2,231.6,222.1,202.3,222.1z M96.3,112.8C69.7,112.8,48,134.4,48,161v7.8
			c0,26.6,21.6,48.3,48.3,48.3h106c26.6,0,48.3-21.6,48.3-48.3V161c0-26.6-21.6-48.3-48.3-48.3L96.3,112.8L96.3,112.8z"/>
	</g>
	<g>
		<path class="st1" d="M218.2,164.9c-0.3,12-10.3,22-22.8,21.8c-12.7-0.2-22.5-10.7-22.2-23c0.3-12.3,10.8-22.7,24.2-21.8
			C208.7,142.6,218.6,152.5,218.2,164.9L218.2,164.9z"/>
		<path class="st1" d="M125.4,164.2c0,12.5-10.1,22.5-22.7,22.5c-12.7-0.1-22.1-10.5-22.3-21.9c-0.3-12.8,10.2-22.6,21.5-23
			C115.1,141.3,125.4,151.9,125.4,164.2L125.4,164.2z"/>
	</g>
	<g>
		<polygon class="st1" points="159.1,301.2 120.5,316.2 81.9,331.1 81.7,302 81.4,272.8 120.2,287 		"/>
		<polygon class="st1" points="139.4,301.2 178,316.2 216.6,331.1 216.9,302 217.2,272.8 178.3,287 		"/>
	</g>
	<path class="st1" d="M171.8,35.2c-0.3,12-10.3,22-22.8,21.8c-12.7-0.2-22.5-10.7-22.2-23c0.3-12.3,10.8-22.7,24.2-21.8
		C162.3,12.9,172.2,22.7,171.8,35.2L171.8,35.2z"/>
</g>
</svg>
